<svg xmlns="http://www.w3.org/2000/svg" width="2582.625" height="6137.252" viewBox="0 0 2582.625 6137.252">
  <defs>
    <style>
      .cls-1 {
        fill: #03fff5;
      }
    </style>
  </defs>
  <path id="Path_2" data-name="Path 2" class="cls-1" d="M8169.838,10301.474,5672.417,7804.053l-1.464-1.465V5648.132c0-200.625,148.107-366.523,272.355-470.366,155.336-129.828,338.2-219.884,457.531-260.874,140.548-48.276,217.5-42.2,403.409-27.516,137.369,10.849,344.962,27.246,687.023,27.246,235.409,0,420.552-68.342,550.288-203.126,211.93-220.178,202.049-545.63,201.925-548.892l9.992-.382c.126,3.3,10.134,333-204.711,556.208-131.693,136.819-319.261,206.192-557.493,206.192-342.455,0-550.285-16.415-687.811-27.276-184.444-14.568-260.789-20.6-399.373,27-118.489,40.7-300.075,130.135-454.367,259.088-122.611,102.476-268.768,265.933-268.768,462.694V7798.446L8176.909,10294.4Z" transform="translate(-5670.954 -4164.221)"/>
</svg>
